:FULLY-SPECIFIED
:FORCE-ALL-JOINTS-BE-3DOF
:DEGREES
81
root 9.31218 16.3883 -25.5435 3.96115 -7.95735 2.48199
lfemur -16.1499 3.02139 -27.2085
ltibia 27.4452 -0 0
lfoot -14.9736 9.53561 0.000714529
ltoes -0.885444 0 0
rfemur -21.4594 0.169068 17.8809
rtibia 62.5922 -0 0
rfoot -15.5845 -12.4677 -0.00366818
rtoes -11.8908 0 0
lowerback -4.77822 -0.986251 -3.71766
upperback -1.42724 -1.17865 2.45195
thorax 1.33525 -0.595167 4.55373
lowerneck -22.4062 -4.05434 -11.4175
upperneck 19.2966 -4.64173 11.659
head 10.4368 -1.6125 5.39474
lclavicle -1.89549e-14 2.65043e-16 0
lhumerus -27.7508 -12.2765 87.2531
lradius 25.7585 -0 0
lwrist 0.413178 0 0
lhand -2.16208 -17.0914 0.169566
lfingers 7.12502 0 0
lthumb 23.5105 11.4126 0.13987
rclavicle -1.89549e-14 2.65043e-16 0
rhumerus -43.704 13.5591 -89.0896
rradius 40.2254 -0 0
rwrist -22.073 0 0
rhand -31.0364 -23.9735 -0.000884128
rfingers 7.12502 0 0
rthumb -4.31833 -53.9097 -0.000842775
82
root 9.3196 16.3801 -25.4302 3.89498 -7.76603 2.60901
lfemur -15.6084 2.81881 -27.4101
ltibia 27.3979 -0 0
lfoot -15.2193 9.57664 -0.000448521
ltoes -1.67118 0 0
rfemur -22.4259 0.524239 17.9063
rtibia 62.0426 -0 0
rfoot -16.2908 -12.6229 -0.00192674
rtoes -11.6477 0 0
lowerback -4.84367 -1.03171 -3.84671
upperback -1.3364 -1.23054 2.43441
thorax 1.47343 -0.626432 4.60403
lowerneck -22.5966 -4.09505 -11.5197
upperneck 19.4791 -4.66861 11.7025
head 10.5456 -1.6226 5.4322
lclavicle -1.88907e-14 -1.19271e-15 0
lhumerus -27.0955 -12.8033 87.1788
lradius 26.3727 -0 0
lwrist 1.11327 0 0
lhand -4.39056 -18.8258 0.20546
lfingers 7.12502 0 0
lthumb 21.3708 9.92281 0.169572
rclavicle -1.88907e-14 -1.19271e-15 0
rhumerus -43.614 13.5558 -88.9727
rradius 40.1513 -0 0
rwrist -22.0491 0 0
rhand -31.0766 -24.0598 -0.0011531
rfingers 7.12502 0 0
rthumb -4.35713 -53.9953 -0.00109782
83
root 9.32702 16.3719 -25.3169 3.84412 -7.56269 2.72596
lfemur -15.0784 2.63841 -27.5981
ltibia 27.3455 -0 0
lfoot -15.4547 9.58334 -0.00148714
ltoes -2.49318 0 0
rfemur -23.3816 0.885832 17.9193
rtibia 61.4114 -0 0
rfoot -16.9171 -12.7547 0.000278418
rtoes -11.4617 0 0
lowerback -4.92483 -1.07743 -3.96671
upperback -1.2525 -1.28253 2.41911
thorax 1.61323 -0.657778 4.65123
lowerneck -22.7716 -4.14129 -11.6363
upperneck 19.6572 -4.70206 11.7571
head 10.6517 -1.636 5.47509
lclavicle -1.88266e-14 -2.65046e-15 0
lhumerus -26.4692 -13.3524 87.1181
lradius 27.0072 -0 0
lwrist 1.8436 0 0
lhand -6.6677 -20.6052 0.172429
lfingers 7.12502 0 0
lthumb 19.1844 8.39291 0.142341
rclavicle -1.88266e-14 -2.65046e-15 0
rhumerus -43.5282 13.5343 -88.853
rradius 40.0565 -0 0
rwrist -22.0061 0 0
rhand -31.0928 -24.1131 -0.00115782
rfingers 7.12502 0 0
rthumb -4.37272 -54.0483 -0.00110132
84
root 9.33443 16.3637 -25.2037 3.80269 -7.33613 2.82625
lfemur -14.5413 2.48288 -27.7653
ltibia 27.2659 -0 0
lfoot -15.7088 9.54755 -0.00157105
ltoes -3.16628 0 0
rfemur -24.3079 1.22646 17.922
rtibia 60.7067 -0 0
rfoot -17.4997 -12.8539 0.0014329
rtoes -11.4239 0 0
lowerback -5.01373 -1.12576 -4.06478
upperback -1.18218 -1.3387 2.40796
thorax 1.74349 -0.690761 4.68977
lowerneck -22.8895 -4.19347 -11.7593
upperneck 19.8151 -4.74453 11.8055
head 10.7411 -1.65641 5.51423
lclavicle -1.87624e-14 -4.10822e-15 0
lhumerus -25.8839 -13.9014 87.072
lradius 27.6359 -0 0
lwrist 2.55662 0 0
lhand -8.6912 -22.1721 0.0874249
lfingers 7.12502 0 0
lthumb 17.241 7.04553 0.0721554
rclavicle -1.87624e-14 -4.10822e-15 0
rhumerus -43.4727 13.4968 -88.7342
rradius 39.9566 -0 0
rwrist -21.9561 0 0
rhand -31.0748 -24.1233 -0.000787748
rfingers 7.12502 0 0
rthumb -4.35537 -54.0588 -0.000748784
85
root 9.34185 16.3555 -25.0904 3.76477 -7.07516 2.90322
lfemur -13.9785 2.35489 -27.9044
ltibia 27.1369 0 0
lfoot -16.0104 9.46108 0
ltoes -3.5053 0 0
rfemur -25.1862 1.51882 17.9179
rtibia 59.9367 0 0
rfoot -18.0752 -12.9112 0
rtoes -11.6259 0 0
lowerback -5.1024 -1.17897 -4.12802
upperback -1.1321 -1.40317 2.40285
thorax 1.85304 -0.726898 4.71409
lowerneck -22.9087 -4.25176 -11.8803
upperneck 19.9369 -4.79835 11.8303
head 10.8001 -1.68749 5.54042
lclavicle -1.86982e-14 -5.56597e-15 0
lhumerus -25.3521 -14.428 87.0421
lradius 28.2328 0 0
lwrist 3.2048 0 0
lhand -10.161 -23.2719 0
lfingers 7.12502 0 0
lthumb 15.8286 6.10104 0
rclavicle -1.86982e-14 -5.56597e-15 0
rhumerus -43.4737 13.4457 -88.6201
rradius 39.8671 0 0
rwrist -21.9118 0 0
rhand -31.0127 -24.0807 0
rfingers 7.12502 0 0
rthumb -4.29536 -54.0172 0
86
root 9.34819 16.3492 -24.9706 3.73879 -6.7782 2.94229
lfemur -13.4095 2.28001 -27.9998
ltibia 26.9823 -0 0
lfoot -16.3887 9.29799 0.00294145
ltoes -3.46251 0 0
rfemur -26.0234 1.76246 17.9248
rtibia 59.0851 -0 0
rfoot -18.6508 -12.9313 -0.00241276
rtoes -12.1439 0 0
lowerback -5.18899 -1.23622 -4.14032
upperback -1.11702 -1.47606 2.40941
thorax 1.92527 -0.765385 4.72132
lowerneck -22.804 -4.32095 -12.0142
upperneck 20.0242 -4.87005 11.8371
head 10.8262 -1.73352 5.5571
lclavicle -1.73481e-14 -3.18055e-15 0
lhumerus -24.8936 -14.9276 87.0378
lradius 28.7993 -0 0
lwrist 3.80126 0 0
lhand -11.0088 -23.8598 -0.05087
lfingers 7.12502 0 0
lthumb 15.0134 5.59772 -0.0419227
rclavicle -1.73481e-14 -3.18055e-15 0
rhumerus -43.5572 13.3782 -88.5129
rradius 39.7886 -0 0
rwrist -21.8624 0 0
rhand -30.872 -23.9426 0.00139477
rfingers 7.12502 0 0
rthumb -4.15947 -53.8815 0.00132549
87
root 9.35454 16.3429 -24.8508 3.73087 -6.45398 2.94602
lfemur -12.8535 2.26043 -28.0532
ltibia 26.8245 -0 0
lfoot -16.8264 9.05961 0.0055073
ltoes -3.17651 0 0
rfemur -26.8356 1.97925 17.945
rtibia 58.142 -0 0
rfoot -19.1988 -12.9225 -0.00341142
rtoes -12.92 0 0
lowerback -5.27956 -1.2954 -4.10873
upperback -1.13459 -1.55412 2.4273
thorax 1.96581 -0.804791 4.71535
lowerneck -22.6035 -4.40138 -12.1706
upperneck 20.0901 -4.95903 11.8408
head 10.8298 -1.7924 5.57233
lclavicle -1.5998e-14 -7.95137e-16 0
lhumerus -24.5032 -15.4176 87.0612
lradius 29.3563 -0 0
lwrist 4.38665 0 0
lhand -11.4616 -24.131 -0.0687298
lfingers 7.12502 0 0
lthumb 14.5777 5.36642 -0.0566191
rclavicle -1.5998e-14 -7.95137e-16 0
rhumerus -43.7076 13.2922 -88.4099
rradius 39.7088 -0 0
rwrist -21.7959 0 0
rhand -30.6539 -23.7085 0.00280159
rfingers 7.12502 0 0
rthumb -3.94883 -53.6511 0.00266266
88
root 9.36088 16.3366 -24.731 3.7318 -6.10667 2.93337
lfemur -12.2909 2.26408 -28.0838
ltibia 26.6395 -0 0
lfoot -17.2828 8.77871 0.00647005
ltoes -2.7416 0 0
rfemur -27.6184 2.17507 17.9588
rtibia 57.1254 -0 0
rfoot -19.7031 -12.8811 -0.00329759
rtoes -13.8445 0 0
lowerback -5.37804 -1.35691 -4.05515
upperback -1.1658 -1.63638 2.44948
thorax 1.99684 -0.845695 4.70077
lowerneck -22.3458 -4.48653 -12.3339
upperneck 20.1357 -5.05683 11.8383
head 10.8169 -1.8582 5.58384
lclavicle -1.46479e-14 1.59028e-15 0
lhumerus -24.1558 -15.9086 87.1029
lradius 29.9076 -0 0
lwrist 4.95474 0 0
lhand -11.6634 -24.1934 -0.0602199
lfingers 7.12502 0 0
lthumb 14.383 5.31481 -0.0495799
rclavicle -1.46479e-14 1.59028e-15 0
rhumerus -43.8883 13.1907 -88.3076
rradius 39.6238 -0 0
rwrist -21.7226 0 0
rhand -30.4016 -23.4314 0.00324848
rfingers 7.12502 0 0
rthumb -3.70525 -53.3783 0.00308705
89
root 9.36722 16.3303 -24.6113 3.73256 -5.74043 2.92318
lfemur -11.7022 2.25927 -28.1117
ltibia 26.4032 -0 0
lfoot -17.7171 8.48806 0.00541819
ltoes -2.2521 0 0
rfemur -28.3676 2.35522 17.9464
rtibia 56.0534 -0 0
rfoot -20.1479 -12.8032 -0.00239304
rtoes -14.8076 0 0
lowerback -5.48831 -1.42117 -4.00146
upperback -1.19161 -1.72189 2.46883
thorax 2.04056 -0.888679 4.68216
lowerneck -22.0693 -4.57019 -12.4882
upperneck 20.1624 -5.15503 11.8264
head 10.7932 -1.92499 5.58938
lclavicle -1.32979e-14 3.9757e-15 0
lhumerus -23.826 -16.4111 87.153
lradius 30.4568 -0 0
lwrist 5.49928 0 0
lhand -11.758 -24.154 -0.0370606
lfingers 7.12502 0 0
lthumb 14.2912 5.35096 -0.0304824
rclavicle -1.32979e-14 3.9757e-15 0
rhumerus -44.063 13.0768 -88.2022
rradius 39.53 -0 0
rwrist -21.6527 0 0
rhand -30.1586 -23.1644 0.00246821
rfingers 7.12502 0 0
rthumb -3.47054 -53.1154 0.00234466
90
root 9.37357 16.324 -24.4915 3.72438 -5.35941 2.93417
lfemur -11.068 2.21476 -28.1575
ltibia 26.0917 -0 0
lfoot -18.0885 8.22044 0.00284434
ltoes -1.80232 0 0
rfemur -29.079 2.52453 17.8881
rtibia 54.9439 -0 0
rfoot -20.5171 -12.6851 -0.00110464
rtoes -15.6993 0 0
lowerback -5.6142 -1.48869 -3.96953
upperback -1.19296 -1.80969 2.4782
thorax 2.11913 -0.934317 4.66404
lowerneck -21.8126 -4.64649 -12.6176
upperneck 20.1714 -5.24518 11.8019
head 10.7645 -1.98686 5.58666
lclavicle -1.19478e-14 6.36111e-15 0
lhumerus -23.4881 -16.9355 87.2011
lradius 31.0075 -0 0
lwrist 6.01402 0 0
lhand -11.8892 -24.1202 -0.012424
lfingers 7.12502 0 0
lthumb 14.1642 5.383 -0.0101945
rclavicle -1.19478e-14 6.36111e-15 0
rhumerus -44.1952 12.9535 -88.0904
rradius 39.4236 -0 0
rwrist -21.5965 0 0
rhand -29.968 -22.9604 0.00101825
rfingers 7.12502 0 0
rthumb -3.28652 -52.9146 0.000966271
